<svg xmlns="http://www.w3.org/2000/svg" viewBox="0 0 234.46 48.68"><defs><style>.cls-1{fill:#fff;}.cls-2{fill:#4acc8e;}</style></defs><title>logo-quantify-light</title><g id="Layer_2" data-name="Layer 2"><g id="Layer_1-2" data-name="Layer 1"><path class="cls-1" d="M7.41,3.73A4.91,4.91,0,1,1,2.5,8.64,4.92,4.92,0,0,1,7.41,3.73m0-2.5a7.41,7.41,0,1,0,7.41,7.41A7.41,7.41,0,0,0,7.41,1.23Z"/><path class="cls-1" d="M25.37,3.73a4.91,4.91,0,1,1-4.91,4.91,4.92,4.92,0,0,1,4.91-4.91m0-2.5a7.41,7.41,0,1,0,7.42,7.41,7.41,7.41,0,0,0-7.42-7.41Z"/><path class="cls-1" d="M7.41,21.69A4.91,4.91,0,1,1,2.5,26.6a4.92,4.92,0,0,1,4.91-4.91m0-2.5a7.41,7.41,0,1,0,7.41,7.41,7.41,7.41,0,0,0-7.41-7.41Z"/><path class="cls-1" d="M25.37,21.69a4.91,4.91,0,1,1-4.91,4.91,4.92,4.92,0,0,1,4.91-4.91m0-2.5a7.41,7.41,0,1,0,7.42,7.41,7.41,7.41,0,0,0-7.42-7.41Z"/><circle class="cls-2" cx="37.35" cy="39.77" r="7.41"/><path class="cls-1" d="M82.7,22.17A20.41,20.41,0,0,1,80.91,31a12.69,12.69,0,0,1-5.11,5.7l6.47,5.64-2.08,1.86-7.25-6.27a15,15,0,0,1-4.08.56,12.91,12.91,0,0,1-12.11-7.68A19.9,19.9,0,0,1,55,22.34v-4a20.42,20.42,0,0,1,1.72-8.61A12.79,12.79,0,0,1,68.81,2a13.32,13.32,0,0,1,7.3,2A13.08,13.08,0,0,1,81,9.72a20.39,20.39,0,0,1,1.72,8.62Zm-3-3.86q0-6.42-2.91-10.06a9.66,9.66,0,0,0-8-3.64,9.59,9.59,0,0,0-7.87,3.65Q58,11.91,58,18.46v3.71q0,6.32,2.92,10a9.58,9.58,0,0,0,7.95,3.7,9.59,9.59,0,0,0,8-3.64q2.88-3.64,2.88-10.16Z"/><path class="cls-1" d="M106.68,34.67Q104,38.5,98.25,38.5,94,38.5,91.83,36t-2.25-7.26V11.6h2.91V28.42q0,7.54,6.1,7.54,6.35,0,8-5.25V11.6h2.93V38h-2.83Z"/><path class="cls-1" d="M133.83,38a13.8,13.8,0,0,1-.56-3.69,10.19,10.19,0,0,1-3.92,3.09,12,12,0,0,1-5,1.09,8.86,8.86,0,0,1-6.17-2.12A6.92,6.92,0,0,1,115.78,31,7.07,7.07,0,0,1,119,24.9q3.21-2.25,8.95-2.25h5.3v-3a5.78,5.78,0,0,0-1.75-4.46,7.21,7.21,0,0,0-5.09-1.62,8,8,0,0,0-5.05,1.56,4.64,4.64,0,0,0-2,3.76l-2.93,0a6.8,6.8,0,0,1,2.93-5.46,11.29,11.29,0,0,1,7.2-2.31,10.29,10.29,0,0,1,7,2.21,7.93,7.93,0,0,1,2.63,6.17V32a15.5,15.5,0,0,0,.81,5.74V38Zm-9.18-2.1a9.8,9.8,0,0,0,5.24-1.42,8.33,8.33,0,0,0,3.36-3.78V24.9H128a13.1,13.1,0,0,0-6.84,1.6,4.8,4.8,0,0,0-2.47,4.26,4.72,4.72,0,0,0,1.65,3.69A6.21,6.21,0,0,0,124.65,35.91Z"/><path class="cls-1" d="M146.72,11.6l.1,4.52a10.5,10.5,0,0,1,3.71-3.72,9.65,9.65,0,0,1,4.91-1.28q4.25,0,6.32,2.39t2.1,7.18V38h-2.91V20.65a8.08,8.08,0,0,0-1.5-5.27q-1.48-1.73-4.72-1.73a7.39,7.39,0,0,0-4.8,1.7,9.94,9.94,0,0,0-3.09,4.58V38h-2.91V11.6Z"/><path class="cls-1" d="M175.94,4.83V11.6h5.47V14h-5.47V31.61a5.51,5.51,0,0,0,.79,3.28A3.08,3.08,0,0,0,179.38,36a18.12,18.12,0,0,0,2.37-.24l.12,2.37a9.57,9.57,0,0,1-3.12.41,5.21,5.21,0,0,1-4.37-1.75A8.21,8.21,0,0,1,173,31.62V14h-4.86V11.6H173V4.83Z"/><path class="cls-1" d="M187.29,4a2,2,0,0,1,.54-1.4A1.91,1.91,0,0,1,189.29,2a2,2,0,0,1,1.48.57,1.93,1.93,0,0,1,.55,1.4,1.89,1.89,0,0,1-.55,1.38,2,2,0,0,1-1.48.56,1.94,1.94,0,0,1-1.46-.56A1.92,1.92,0,0,1,187.29,4Zm3.44,34h-2.93V11.6h2.93Z"/><path class="cls-1" d="M200.77,38V14H196.4V11.6h4.37V8.4a8.7,8.7,0,0,1,2.06-6.23A7.55,7.55,0,0,1,208.58,0a11.28,11.28,0,0,1,3.1.41l-.22,2.42a11.4,11.4,0,0,0-2.66-.29A4.78,4.78,0,0,0,205,4a6.2,6.2,0,0,0-1.34,4.27V11.6H210V14h-6.3V38Z"/><path class="cls-1" d="M223.6,33.81l7.71-22.22h3.15L223.18,42.5l-.59,1.37q-2.17,4.81-6.71,4.81a8.2,8.2,0,0,1-2.25-.34l0-2.42,1.51.15A5.4,5.4,0,0,0,218.6,45a8.07,8.07,0,0,0,2.26-3.65l1.29-3.56-10-26.2h3.2Z"/></g></g></svg>